<svg xmlns="http://www.w3.org/2000/svg" xmlns:svg="http://www.w3.org/2000/svg" id="Buffalo_x5F_Gopher" width="500" height="600" x="0" y="0" enable-background="new 0 0 900 900" version="1.1" viewBox="0 0 500 600" xml:space="preserve"><metadata id="metadata619"/><g id="g5906" transform="translate(-181.67164,56.716417)"><path id="path21" fill="#bc9e6c" d="M 533.5,31.3 523.4,27 h -14.3 l -25.7,-6 h -34.6 l -39.4,6 h -51.6 l -25.7,3.3 c -26.8,15.8 -41.1,46 -52.2,73.8 -8.9,22.4 -19.3,45 -21.9,69.2 -1.3,11.8 -0.2,24.8 2.9,37.2 l -2.1,2.1 -1.3,5.4 6.7,22.8 32.7,35.6 67.7,35.5 55.7,12.5 44.9,-1.9 23.7,-14.7 66.2,-31.5 30.4,-14.3 16.3,-42.7 v -12 l 0.5,-0.4 C 611.8,161.8 598,126.5 577.6,88.1 565.2,64.8 556,44.5 531.9,30.2"/><path id="path23" fill="#6ad7e5" d="m 299.1,263.3 c -19.8,-66.4 11.8,-149.6 89.2,-149.4 l 47.1,-1.4 h 41 l -0.1,0.3 c 77.4,-0.2 109,83 89.2,149.3 l -12.4,8.4 -26.4,19.6 -10.2,10.4 h -15.1 l -24.6,11.7 -14.4,6.1 -28.5,2.7 -33.3,-0.9 -28.8,-11.6 -39.6,-18.5 -25.7,-19.4 z"/><path id="path25" fill="#f6d2a2" d="m 406.2,238.7 c 4.5,-2.6 10.4,-5.5 15.7,-5.1 5.1,0.4 10.1,1.6 15.2,2.4 4.8,0.8 9.3,0.8 13.9,2.6 4.6,1.8 9,4.9 12.1,8.7 3.6,4.5 1.6,11.4 -3.7,14.5 -9.8,5.8 -18.4,-5.6 -28.3,-5.5 -9.5,0.1 -18.1,9.1 -27.3,1.3 -6,-5 -3.5,-15.5 2.4,-18.9 z"/><path id="path27" fill="#fff" d="m 443.5,274.3 c 4.4,-1.2 5.2,-6.8 3.9,-10.7 -1.6,-5 -8.2,-8.4 -13.4,-5.9 -4.3,2 -2.8,6.4 -2.9,11.4 -0.2,6.7 7.4,6.5 12.4,5.2 z"/><path id="path29" fill="#fff" d="m 412.3,261.6 c 1.7,0.5 3.6,0 5.3,-0.6 3.3,-1.2 9.3,-5.8 11.6,-3.9 2.7,2.1 1.5,15.5 0.8,15.9 -3.4,2 -8.4,2.9 -13.3,1.3 -5.9,-1.9 -3.6,-7 -3.5,-10.8 0,-0.6 0.4,-1.1 0.3,-1.7"/><circle id="ellipse31" cx="-126.569" cy="518.274" r="49.001" fill="#fff" stroke-width="1" transform="rotate(-82.646154)"/><circle id="ellipse33" cx="-144.955" cy="386.374" r="49.001" fill="#fff" stroke-width="1" transform="rotate(-82.646154)"/><circle id="ellipse35" cx="-39.844" cy="338.693" r="24.301" fill="#fff" stroke-width="1" transform="rotate(-82.646154)"/><path id="path37" fill="#726958" d="M 294.2,71.6 C 288.9,69.9 282.5,58 280,53.3 c -5.1,-9.2 -8.4,-19.4 -9,-30 -0.3,-5.5 0.1,-17.7 7.4,-19.5 9.1,-2.3 14.1,11.7 20.6,15.8 9.3,5.9 21.7,4.5 32,2.4 0,0 0.7,4.5 0.8,4.8 0.1,0.9 0.7,2.3 0.5,3.1 -0.2,1.1 -2,1.6 -2.9,2.1 -3.2,1.7 -6,3.6 -8.9,5.8 -1.9,1.5 -3.5,3.2 -5.2,5 -0.8,0.8 -1.6,1.5 -2.3,2.4 -0.7,0.9 -1.3,1.9 -2,2.8 -1.9,2.1 -3.2,4.6 -4.9,6.8 -1.4,1.7 -3,3.5 -4,5.5 -1,1.9 -2.4,3.7 -3.2,5.6 -0.5,1.3 -0.7,2.5 -1.8,3.5 -1.1,0.9 -2.1,1.5 -2.9,2.2 z"/><path id="path39" fill="#bc9e6c" d="m 259.4,318 c -6.9,4 -17,12.8 -21.8,17.6 -2.6,2.6 -11.7,10.7 -13,14.3 -2.5,6.8 7.5,2.5 8.8,8.6 1.5,6.9 -5.1,11 5.3,10.7 5.8,-0.2 11.4,-2.1 16.7,-4 8.7,-3.2 20.5,-5.3 30.2,-10.6 l 0.2,-4 0.2,-3.6 -8.3,-8.3 -10.3,-17.8 -2.7,-2.8 h -5.3 z"/><path id="path41" fill="none" stroke="#211915" stroke-linecap="round" stroke-linejoin="round" stroke-miterlimit="10" stroke-width="4" d="m 317.5,464.9 c -8.3,6.8 -16.6,13.6 -20.8,23.6 -5,11.8 -0.9,27.8 13.1,28.6 9.8,0.5 27,-6.3 35.6,-10.5 8.8,-4.3 23.5,-13.1 31.8,-18.9"/><path id="path43" fill="#bc9e6c" d="m 283.3,59 c -6.4,0 -28.9,8 -30.7,14.9 -3.2,12.2 24.7,15.7 32.6,17.2 l 8.9,-19.5 z"/><circle id="ellipse45" cx="518.522" cy="150.41" r="24.301" fill="#fff" stroke-width="1" transform="rotate(-7.3538458)"/><path id="path47" fill="#726958" d="m 533.5,22.1 c 10.2,2.1 22.6,3.5 32,-2.3 6.5,-4.1 11.6,-18.1 20.6,-15.8 7.2,1.8 7.7,14 7.3,19.6 -0.6,10.5 -4,20.7 -9,30 -2.6,4.7 -9.7,17.1 -15,18.7 L 559.1,58.6 548.1,42.8 536,32.7 532.4,30 l 1.1,-7.9"/><path id="path49" fill="#bc9e6c" d="m 286,346.9 c -2.6,33.1 6.4,70.2 20.1,100.1 6,13.2 15.1,24.5 28.5,30.6 21.6,9.8 46.8,10.5 70.1,11.8 9.1,0.5 21,1.2 29.2,1.4 8.3,-0.2 16.6,-0.9 25.7,-1.4 23.3,-1.4 48.5,-2 70.1,-11.8 13.4,-6.1 22.5,-17.4 28.5,-30.6 13.7,-29.9 22.6,-67 20.1,-100.1 l -5.7,3.1 -14.7,3.2 -9.7,2.9 -6.4,17.7 -21.9,20.6 -19.4,3.1 -11.7,1.6 -7.5,7.5 -8.2,-8.7 -8.4,8.4 -10.7,2.7 -28.3,-1.8 -12.5,0.4 -18.5,-9.1 -8.6,2.1 -16,-4.2 -38.1,-12.9 -12.2,-14.2 -4.4,-11.7 -9.6,-2.5 z"/><path id="path51" fill="#bc9e6c" d="m 604.9,318.3 c 6.9,4.3 17,12.7 21.8,17.4 2.6,2.6 11.7,10.6 13,14.2 2.5,6.8 -7.5,2.4 -8.8,8.5 -1.5,6.9 5.1,11 -5.3,10.7 -5.8,-0.2 -11.4,-2.1 -16.7,-4.1 -8.7,-3.2 -20.5,-5.3 -30.2,-10.6 l -0.5,-7.6 8.2,-6.1 6.7,-7.4 2.5,-8.9 3.1,-5.8 6.2,-0.3"/><path id="path53" fill="none" stroke="#211915" stroke-linecap="round" stroke-linejoin="round" stroke-miterlimit="10" stroke-width="4" d="m 546.8,464.9 c 8.3,6.8 16.6,13.6 20.8,23.6 5,11.8 0.9,27.8 -13.1,28.6 -9.8,0.5 -27,-6.3 -35.6,-10.5 -8.8,-4.3 -23.5,-13.1 -31.8,-18.9"/><path id="path55" fill="#bc9e6c" d="m 579.2,89.8 c 7.9,-1.5 35.6,-3.4 32.4,-15.6 -1.8,-6.9 -24.2,-15 -30.6,-15 l -11.6,13 z"/><path id="path57" fill="#493628" d="m 294.8,262.1 c 27.8,-1.2 51.6,19.5 64.3,42 l -7,-10.7 c 14.2,-2.2 32.2,4.7 41.5,16 10.4,-3 16.9,0.6 20.6,5.3 10.2,-6.8 25.1,-3.8 35,0 3.6,-5 10.5,-8.4 21.4,-5.3 9.3,-11.4 27.3,-18.2 41.5,-16 l -7,10.7 c 12.7,-22.6 36.5,-43.3 64.3,-42 18.5,-14.8 29.8,-30.7 33,-54.6 l -0.5,3 c 31.9,-6.5 36.9,118.6 -6.8,107.6 l 3.5,0.6 c -1.8,22.1 -31.5,38.1 -51.5,37.4 l 3.2,0.1 c -5.7,28.7 -35.4,46.9 -59.5,42.9 0,0.6 -3.7,8.1 -13,7.7 -7.4,-0.3 -3.8,-6.7 -7.3,-10.7 -0.2,2.7 -3.1,10.9 -6.7,11.8 -3.7,0.9 -3.9,1.4 -12.4,-0.9 -0.7,11.1 -7.6,27.4 -16.7,34.5 -8.2,-5.6 -18,-24.8 -20.4,-34.8 -4.6,3.2 -7.8,3.6 -12.1,0.1 -2.4,-1.9 -8.3,-8.2 -8.5,-10.8 -3.5,4 0,10.4 -7.3,10.7 -4.5,0.2 -9.9,-5.7 -10,-10 -26.2,-1.2 -56.8,-11.9 -62.6,-40.6 L 317,356 c -20,0.7 -49.7,-15.3 -51.5,-37.4 L 269,318 c -43.7,11 -40,-114.1 -8.1,-107.6 2.3,9.1 5.7,17.9 10.3,25.5 6.1,10.2 14.4,18.8 23.6,26.2 z"/><path id="path59" fill="#6e5128" d="m 432.7,88.4 c 9.9,-0.2 20.7,-0.6 29.5,3.5 10.5,4.9 17.9,23.8 13,34.9 -4.8,11 -16.3,17 -27.5,19.7 -18.9,4.5 -49.7,0.8 -58.7,-19.7 -4.9,-11.1 2.5,-30 13,-34.9 9.1,-4.2 20.6,-3.8 30.7,-3.5"/><polygon id="polygon61" fill="#5b5b5f" points="232.8 567.7 233.4 558.5 228.7 554.3 224.2 553.9 226.6 546.9 234.5 539 241.6 543.7 245.8 550.9 248 556.8 248 563.5 247.4 567.7 234.4 568.9" transform="translate(0,-200)"/><polygon id="polygon63" fill="#5b5b5f" points="625.6 569.2 616.7 567.7 615 564.5 615 557.5 616.4 550 621.4 543.9 625.4 540.7 628.9 538.9 633.4 542.6 640.1 549.8 639.6 553.3 635.6 555.1 630.8 556.7 630.2 563.4 631.5 567.7" transform="translate(0,-200)"/><polygon id="polygon65" fill="#bc9e6c" points="321.4 670.5 330.4 675.5 346.7 681.7 359.8 685.3 377.2 686.7 365.7 695 342.3 707.7 323.7 715 311.4 716.8 304.9 715.7 299.6 713.1 296 705.7 294.7 699.4 295.8 691 297.1 684.3 306 675.5 316.5 665.6" transform="translate(0,-200)"/><path id="path67" fill="#bc9e6c" d="m 546.8,464.9 c 8.3,6.8 16.6,13.6 20.8,23.6 5,11.8 0.9,27.8 -13.1,28.6 -9.8,0.5 -27,-6.3 -35.6,-10.5 -8.8,-4.3 -23.5,-13.1 -31.8,-18.9 l 9,-1.1 18.4,-3.6 17.6,-6.6 11.4,-8.1 z"/><polygon id="polygon69" fill="#5b5b5f" points="537.1 697.7 527.8 706.3 526 709.2 533.7 712.4 547.7 716.3 555.1 717 561.1 715.3 566.1 711.6 569.7 705.6 569 698.2 567.5 690.1 566.1 686.2 557.7 687.4 548.1 690.5" transform="translate(0,-200)"/><polygon id="polygon71" fill="#5b5b5f" points="304.9 715.7 299.6 713.1 294.7 701.6 293.4 695.3 296.2 688.8 297.1 684.3 307.6 687.3 318.3 692.1 331.2 701.6 339.1 709.5 326.4 713.9 311.4 716.8" transform="translate(0,-200)"/><path id="path116" fill="#493628" d="m 508.6,55.4 c 0,1.2 -0.3,2.8 -0.5,4.2 -0.4,2.9 -1.4,5.7 -2.2,8.5 5.9,-6.6 12.4,-10.7 16.5,-19.3 4.6,-9.6 11.1,-15.9 11.1,-26.7 -0.9,-11.9 -7,-31.3 -22.1,-31.3 -4.4,-9.4 -17,-17.2 -24.2,-15.5 -0.9,-15.8 -22.3,-25.7 -38.8,-21.3 h -0.1 c -8.3,-6.8 -20.1,-8.6 -31.2,0 -16.7,-4.5 -38.2,5.6 -38.6,21.7 -6.9,-2.6 -20.9,5.2 -25.5,15 -15.1,0 -21.2,19.4 -22.1,31.3 0,10.8 6.5,17.1 11.1,26.7 4.1,8.7 10.6,12.8 16.5,19.3 -0.8,-2.7 -1.8,-5.6 -2.2,-8.5 -0.2,-1.4 -0.5,-3 -0.5,-4.2 v 0.1 c 3.2,6.8 3.4,12.8 9.5,17.8 5.4,4.5 12,6.4 17.9,8.8 -1.2,-2 -2.4,-10 0,-13.3 1.4,7 20.1,16.5 27.3,15.3 -1.2,0 -1.3,-8.5 -1.3,-11.3 6.4,0 16.9,6.7 23.1,10.2 6.2,-3.5 16.6,-10.3 23.1,-10.2 0,2.8 -0.1,11.4 -1.3,11.3 7.3,1.1 25.9,-8.3 27.3,-15.3 2.4,3.3 1.2,11.3 0,13.3 5.8,-2.4 12.4,-4.4 17.9,-8.8 5.9,-4.9 6,-10.9 9.3,-17.8"/><polygon id="polygon120" fill="#444242" points="432.8 520.5 433.9 518.2 433.5 516.5 433.5 513.3 433.9 512 433.2 512 433.1 512.5 431.4 515.4 431 518.2 431.8 521.7" transform="translate(0,-200)"/><polygon id="polygon122" fill="#444242" points="437.4 516.1 437.3 514 437.6 513.2 438.6 515.1 439.1 517.4 438.9 520.6 438.1 522.2 436.4 518.9 437.1 517.5" transform="translate(0,-200)"/><polygon id="polygon124" fill="#5b5b5f" points="433.9 518.3 432.1 522.2 430.4 526.7 429.4 531.1 429.6 533.8 430.3 535.4 432.1 536.5 433.9 536.8 436.2 536.8 438.4 536.2 439.8 535.1 440.5 534 440.7 532 440.5 529.6 439.4 525.4 436.9 519.3 436.4 518.9 435.4 520 436.5 522.1 438 525.7 439 530.5 439 532.5 438.4 533.7 437.1 534.8 435.6 535.1 433.9 534.7 432.7 533.5 432.2 532 432.9 526.4 433.9 523.5 435 520.9 435.3 520.6 435.1 519.7" transform="translate(0,-200)"/><polygon id="polygon126" fill="#5b5b5f" points="437.4 516.1 437.2 513.2 433.7 512.9 433.5 514 433.5 516.5 434.6 519.1 435.4 520 436.4 518.9 437.1 517.5" transform="translate(0,-200)"/><polygon id="polygon128" fill="#726958" points="437.3 529.4 438.4 530.5 438.1 528.3 437.6 525.3 436.4 522.3 435.3 520.4 434.1 523.4 433 528.3 433 530.5 433.5 529.7 434.6 529 435.6 528.8" transform="translate(0,-200)"/><circle id="circle130" cx="435.4" cy="332" r="3.2" fill="#444242"/><rect id="rect132" width="8" height="104" x="432" y="336" fill="#727176"/><path id="path134" fill="#444242" d="m 435,342 h -3 c 0,0 0,-5.5 0,-5.5 0,-0.2 0.9,0.2 0.9,0.2 0.4,0.2 0.7,0.3 1.2,0.4 0.5,0.1 0.7,0.1 0.7,0.6 0,0.7 0.2,1.4 0.2,2.1 0,0.8 0,2.2 0,2.2 z"/><rect id="rect136" width="3" height="4" x="437" y="342" fill="#444242"/><rect id="rect138" width="3" height="4" x="437" y="350" fill="#444242"/><rect id="rect140" width="3" height="4" x="432" y="346" fill="#444242"/><rect id="rect142" width="3" height="4" x="432" y="354" fill="#444242"/><rect id="rect144" width="3" height="4" x="437" y="358" fill="#444242"/><rect id="rect146" width="3" height="4" x="437" y="366" fill="#444242"/><rect id="rect148" width="3" height="4" x="432" y="362" fill="#444242"/><rect id="rect150" width="3" height="4" x="432" y="370" fill="#444242"/><rect id="rect152" width="3" height="4" x="437" y="374" fill="#444242"/><rect id="rect154" width="3" height="4" x="437" y="382" fill="#444242"/><rect id="rect156" width="3" height="4" x="432" y="378" fill="#444242"/><rect id="rect158" width="3" height="4" x="432" y="386" fill="#444242"/><rect id="rect160" width="3" height="4" x="437" y="390" fill="#444242"/><rect id="rect162" width="3" height="4" x="437" y="398" fill="#444242"/><rect id="rect164" width="3" height="4" x="432" y="394" fill="#444242"/><rect id="rect166" width="3" height="4" x="432" y="402" fill="#444242"/><rect id="rect168" width="3" height="4" x="437" y="406" fill="#444242"/><rect id="rect170" width="3" height="4" x="437" y="414" fill="#444242"/><rect id="rect172" width="3" height="4" x="432" y="410" fill="#444242"/><rect id="rect174" width="3" height="4" x="432" y="418" fill="#444242"/><rect id="rect176" width="3" height="4" x="437" y="422" fill="#444242"/><rect id="rect178" width="3" height="4" x="437" y="430" fill="#444242"/><rect id="rect180" width="3" height="4" x="432" y="426" fill="#444242"/><rect id="rect182" width="3" height="4" x="432" y="434" fill="#444242"/><path id="path184" fill="none" d="m 569.8,18.1 c -0.3,-1.4 0.2,-2.7 1.3,-3.3"/><path id="path186" fill="none" d="m 197.9,558.5 c -1.9,0 -3.6,-0.4 -5.5,-0.2"/><path id="path188" fill="none" d="m 189.4,560 c 0.1,-0.2 0.3,-0.3 0.5,-0.2"/><path id="path210" fill="#c47826" d="m 599.4,324 c 6,-0.9 16.9,7.9 21.1,11.9 7.3,6.8 5,15 10.4,22.4 0.7,-3.5 4.2,-3.7 7.4,-3.4 1.7,-11.1 -12.2,-19.4 -18.5,-26.7 -2.3,-2.7 -3.6,-4.8 -6.9,-6.6 -1.3,-0.7 -13.7,-4.3 -14,-1 -0.1,1.7 -0.3,4.2 -0.1,5.4" opacity=".3"/><path id="path224" fill="none" stroke="#211915" stroke-linecap="round" stroke-linejoin="round" stroke-miterlimit="10" stroke-width="2" d="m 291.8,361.5 c 1.1,0 0.4,3.1 1.3,5.3"/><path id="path226" fill="none" stroke="#211915" stroke-linecap="round" stroke-linejoin="round" stroke-miterlimit="10" stroke-width="2" d="m 293.8,373.5 c 1.2,0.7 1.6,1.9 1.3,3.3"/><line id="line228" x1="298" x2="298" y1="366" y2="370" fill="none" stroke="#211915" stroke-linecap="round" stroke-linejoin="round" stroke-miterlimit="10" stroke-width="2"/><path id="path230" fill="none" stroke="#211915" stroke-linecap="round" stroke-linejoin="round" stroke-miterlimit="10" stroke-width="2" d="m 571.8,362.1 c 0.1,3.2 -0.4,6.2 -0.7,9.3"/><line id="line232" x1="566" x2="566" y1="359" y2="362" fill="none" stroke="#211915" stroke-linecap="round" stroke-linejoin="round" stroke-miterlimit="10" stroke-width="2"/><path id="path234" fill="none" stroke="#211915" stroke-linecap="round" stroke-linejoin="round" stroke-miterlimit="10" stroke-width="2" d="m 565.1,372.8 c -0.1,1.8 -0.3,3.6 -0.7,5.3"/><path id="path236" fill="none" stroke="#211915" stroke-linecap="round" stroke-linejoin="round" stroke-miterlimit="10" stroke-width="2" d="m 510.4,494.1 c 3.1,2.4 7.4,2.4 10.7,4.7"/><path id="path238" fill="none" stroke="#211915" stroke-linecap="round" stroke-linejoin="round" stroke-miterlimit="10" stroke-width="2" d="m 517.1,491.5 c -0.1,0.5 0.2,0.7 0.7,0.7"/><path id="path240" fill="none" stroke="#211915" stroke-linecap="round" stroke-linejoin="round" stroke-miterlimit="10" stroke-width="2" d="m 521.1,493.5 c 0.6,0.5 1.2,0.7 2,0.7"/><path id="path242" fill="none" stroke="#211915" stroke-linecap="round" stroke-linejoin="round" stroke-miterlimit="10" stroke-width="2" d="m 351.8,490.1 c -0.6,1.3 -1.9,2.3 -3.3,2.7"/><path id="path244" fill="none" stroke="#211915" stroke-linecap="round" stroke-linejoin="round" stroke-miterlimit="10" stroke-width="2" d="m 357.8,493.5 c -3.2,1.7 -6.7,3.2 -10,4.7"/><line id="line246" x1="340" x2="342" y1="496" y2="496" fill="none" stroke="#211915" stroke-linecap="round" stroke-linejoin="round" stroke-miterlimit="10" stroke-width="2"/><path id="path248" fill="none" stroke="#211915" stroke-linecap="round" stroke-linejoin="round" stroke-miterlimit="10" stroke-width="4" d="m 304.4,513.5 c 2.8,-6 7.2,-18.7 14.7,-20"/><path id="path250" fill="none" stroke="#211915" stroke-linecap="round" stroke-linejoin="round" stroke-miterlimit="10" stroke-width="4" d="m 559.8,513.5 c -1.7,-7.4 -6.1,-17 -12.7,-21.3"/><path id="path252" fill="none" stroke="#211915" stroke-linecap="round" stroke-linejoin="round" stroke-miterlimit="10" stroke-width="2" d="m 488,385.1 c 10.1,1.2 17.1,-2.9 21.3,-11.7 13.8,0.8 17.7,-6.1 22.2,-18.3"/><path id="path254" fill="none" stroke="#211915" stroke-linecap="round" stroke-linejoin="round" stroke-miterlimit="10" stroke-width="2" d="m 348.5,371.6 c 1.9,5.1 7.5,7.8 13.5,7.5"/><path id="path256" fill="none" stroke="#211915" stroke-linecap="round" stroke-linejoin="round" stroke-miterlimit="10" stroke-width="2" d="m 509,-9.4 c -5,-3.7 -12.8,-1.7 -13.8,5.8 -5.1,-2.3 -11.2,-4.8 -16.2,0.2"/><path id="path258" fill="none" stroke="#211915" stroke-linecap="round" stroke-linejoin="round" stroke-miterlimit="10" stroke-width="2" d="m 353,-9.4 c 3.7,-1.6 7.8,-2 11.7,-1.2 3.7,11.3 19.6,-11.8 24.3,2.7"/><path id="path260" fill="none" stroke="#211915" stroke-linecap="round" stroke-linejoin="round" stroke-miterlimit="10" stroke-width="2" d="m 414.5,-19.9 c 0,-1.3 2.7,-4 7.5,-4.2 7.3,-0.2 6.7,4.6 10.8,5.4 7.7,1.6 17.6,-5.6 23.7,3.2"/><path id="path262" fill="none" stroke="#211915" stroke-linecap="round" stroke-linejoin="round" stroke-miterlimit="10" stroke-width="2" d="m 485,44.6 c 6.1,-2.2 10.3,-5.5 17.7,-4.8 0.2,-0.8 0.3,-1.7 0.5,-2.5 7.2,1 9.8,-4.9 10.2,-10.8"/><path id="path264" fill="none" stroke="#211915" stroke-linecap="round" stroke-linejoin="round" stroke-miterlimit="10" stroke-width="2" d="m 345.5,19.1 c 0.1,8.3 9.8,16.6 17.7,12.1 -1.7,11.8 9.6,12.2 18.3,11.8"/><path id="path266" fill="none" stroke="#211915" stroke-linecap="round" stroke-linejoin="round" stroke-miterlimit="10" stroke-width="2" d="m 401,28.1 c 12.7,10 28,18.1 44.7,9.2 4.3,10.1 22.6,3.4 25.8,-4.7"/><path id="path268" fill="none" stroke="#211915" stroke-linecap="round" stroke-linejoin="round" stroke-miterlimit="10" stroke-width="2" d="m 413,10.1 c 5.5,-2.3 11.8,-1.5 18,-1.5"/><path id="path270" fill="none" stroke="#211915" stroke-linecap="round" stroke-linejoin="round" stroke-miterlimit="10" stroke-width="2" d="m 487.9,-24.2 c -2.7,-0.3 -3,1.7 -4.7,3 -1.5,1.2 -4.6,0.2 -5.4,1.2"/><path id="path272" fill="none" stroke="#211915" stroke-linecap="round" stroke-linejoin="round" stroke-miterlimit="10" stroke-width="2" d="m 447.8,-44.4 c -2.7,-0.5 -2.5,3 -2.5,4.7"/><path id="path274" fill="none" stroke="#211915" stroke-linecap="round" stroke-linejoin="round" stroke-miterlimit="10" stroke-width="2" d="m 380,-25.9 c 1.8,1.3 10.1,0.1 12.3,5.7 2.2,0.3 5,0.6 7.2,0.3"/><path id="path276" fill="none" stroke="#211915" stroke-linecap="round" stroke-linejoin="round" stroke-miterlimit="10" stroke-width="2" d="m 571.4,61.4 c 1.8,-1.5 4.9,-4.2 5.7,-6.6"/><path id="path278" fill="none" stroke="#211915" stroke-linecap="round" stroke-linejoin="round" stroke-miterlimit="10" stroke-width="2" d="m 579.7,50.3 c 1.1,-1.3 2,-3.1 2,-4.7"/><path id="path280" fill="none" stroke="#211915" stroke-linecap="round" stroke-linejoin="round" stroke-miterlimit="10" stroke-width="2" d="m 571.1,54.6 c 1.1,-0.4 2.7,-1.5 3.2,-2.5"/><path id="path282" fill="none" stroke="#211915" stroke-linecap="round" stroke-linejoin="round" stroke-miterlimit="10" stroke-width="2" d="m 543.1,28.1 c 0.6,0.2 1.3,0.3 2,0.2"/><path id="path284" fill="none" stroke="#211915" stroke-linecap="round" stroke-linejoin="round" stroke-miterlimit="10" stroke-width="2" d="m 581.1,10 c 1.1,-0.5 2.6,-0.7 3.8,-0.2"/><path id="path286" fill="none" stroke="#211915" stroke-linecap="round" stroke-linejoin="round" stroke-miterlimit="10" stroke-width="2" d="m 286.9,53.5 c 1.9,2.6 4.3,6.2 7,8"/><path id="path288" fill="none" stroke="#211915" stroke-linecap="round" stroke-linejoin="round" stroke-miterlimit="10" stroke-width="2" d="m 288.9,48.5 c 0.4,0.8 1.2,1.5 2,2"/><path id="path290" fill="none" stroke="#211915" stroke-linecap="round" stroke-linejoin="round" stroke-miterlimit="10" stroke-width="2" d="m 294.4,56 c 0.8,0.2 1.7,0.3 2.5,0.5"/><path id="path292" fill="none" stroke="#211915" stroke-linecap="round" stroke-linejoin="round" stroke-miterlimit="10" stroke-width="2" d="m 278.4,10.5 c -2.2,0.8 -2.8,4.2 -2.5,6.5"/><path id="path294" fill="none" stroke="#211915" stroke-linecap="round" stroke-linejoin="round" stroke-miterlimit="10" stroke-width="2" d="m 311.9,29.5 c 1.2,0.7 3.2,0.5 5,0.5"/><line id="line296" x1="322" x2="324" y1="28" y2="28" fill="none" stroke="#211915" stroke-linecap="round" stroke-linejoin="round" stroke-miterlimit="10" stroke-width="2"/><line id="line298" x1="316" x2="317" y1="33" y2="33" fill="none" stroke="#211915" stroke-linecap="round" stroke-linejoin="round" stroke-miterlimit="10" stroke-width="2"/><path id="path300" fill="none" d="m 575.8,249.5 c 0,0 2.9,-2 3.6,-3"/><path id="path302" fill="none" stroke="#211915" stroke-linecap="round" stroke-linejoin="round" stroke-miterlimit="10" stroke-width="2" d="m 569.2,264.5 c -0.8,1.1 -1.4,2.2 -1.8,3.6"/><path id="path304" fill="none" stroke="#211915" stroke-linecap="round" stroke-linejoin="round" stroke-miterlimit="10" stroke-width="2" d="m 617.2,257.3 c 3.7,18.6 -2.9,38.5 -15.6,52.2"/><path id="path306" fill="none" stroke="#211915" stroke-linecap="round" stroke-linejoin="round" stroke-miterlimit="10" stroke-width="2" d="m 575.4,247.8 c 1.3,-2.5 3.4,-4.4 4.6,-6.9"/><path id="path308" fill="none" stroke="#211915" stroke-linecap="round" stroke-linejoin="round" stroke-miterlimit="10" stroke-width="2" d="m 584.6,235.7 c 1.8,-2.1 3,-4.8 3.5,-7.5"/><path id="path310" fill="none" stroke="#211915" stroke-linecap="round" stroke-linejoin="round" stroke-miterlimit="10" stroke-width="2" d="m 577.7,235.7 c 0.7,-0.8 1.3,-1.8 1.7,-2.9"/><path id="path312" fill="none" stroke="#211915" stroke-linecap="round" stroke-linejoin="round" stroke-miterlimit="10" stroke-width="2" d="m 533.4,41.8 c 0,0.2 1,1.2 2.3,1.7"/><path id="path314" fill="none" stroke="#211915" stroke-linecap="round" stroke-linejoin="round" stroke-miterlimit="10" stroke-width="2" d="m 532.2,48.1 c 0.2,0.4 0.4,0.7 0.6,1.2"/><path id="path316" fill="none" stroke="#211915" stroke-linecap="round" stroke-linejoin="round" stroke-miterlimit="10" stroke-width="2" d="m 539.7,46.4 c 2.7,0.4 5.2,2.3 7.5,4"/><path id="path318" fill="none" stroke="#211915" stroke-linecap="round" stroke-linejoin="round" stroke-miterlimit="10" stroke-width="2" d="m 325.1,40.7 c -1.7,0.8 -3.5,1.7 -4,3.5"/><path id="path320" fill="none" stroke="#211915" stroke-linecap="round" stroke-linejoin="round" stroke-miterlimit="10" stroke-width="2" d="m 323.4,47.6 c 1.2,-0.9 2.6,-1.6 4,-1.7"/><path id="path322" fill="none" stroke="#211915" stroke-linecap="round" stroke-linejoin="round" stroke-miterlimit="10" stroke-width="2" d="m 314.7,53.3 c 0.3,-0.7 0.9,-1.1 1.7,-1.2"/><path id="path324" fill="none" stroke="#211915" stroke-linecap="round" stroke-linejoin="round" stroke-miterlimit="10" stroke-width="2" d="m 425.8,142.5 c 2,0.9 5.8,0.9 7.5,0"/><path id="path326" fill="none" stroke="#211915" stroke-linecap="round" stroke-linejoin="round" stroke-miterlimit="10" stroke-width="2" d="m 438.4,141.9 c 1.6,0.2 3.1,0 4.6,-0.6"/><line id="line328" x1="432" x2="436" y1="136" y2="136" fill="none" stroke="#211915" stroke-linecap="round" stroke-linejoin="round" stroke-miterlimit="10" stroke-width="2"/><path id="path330" fill="none" stroke="#211915" stroke-linecap="round" stroke-linejoin="round" stroke-miterlimit="10" stroke-width="2" d="m 276.2,230.5 c 0.1,2.5 2,4.9 3.5,6.3"/><path id="path332" fill="none" stroke="#211915" stroke-linecap="round" stroke-linejoin="round" stroke-miterlimit="10" stroke-width="2" d="m 283.1,242.6 c 0.3,1.5 1.3,2.8 2.9,3.5"/><path id="path334" fill="none" stroke="#211915" stroke-linecap="round" stroke-linejoin="round" stroke-miterlimit="10" stroke-width="2" d="m 282.5,234 c 0,0.8 0.4,1.5 1.2,1.7"/><line id="line336" x1="276" x2="277" y1="64" y2="64" fill="none" stroke="#211915" stroke-linecap="round" stroke-linejoin="round" stroke-miterlimit="10" stroke-width="2"/><line id="line338" x1="280" x2="281" y1="64" y2="64" fill="none" stroke="#211915" stroke-linecap="round" stroke-linejoin="round" stroke-miterlimit="10" stroke-width="2"/><line id="line340" x1="278" x2="280" y1="69" y2="69" fill="none" stroke="#211915" stroke-linecap="round" stroke-linejoin="round" stroke-miterlimit="10" stroke-width="2"/><path id="path342" fill="none" stroke="#211915" stroke-linecap="round" stroke-linejoin="round" stroke-miterlimit="10" stroke-width="2" d="m 581.1,64.8 c 1,0.1 2,-0.1 2.9,-0.6"/><line id="line344" x1="579" x2="581" y1="70" y2="70" fill="none" stroke="#211915" stroke-linecap="round" stroke-linejoin="round" stroke-miterlimit="10" stroke-width="2"/><line id="line346" x1="588" x2="589" y1="68" y2="68" fill="none" stroke="#211915" stroke-linecap="round" stroke-linejoin="round" stroke-miterlimit="10" stroke-width="2"/><path id="path348" fill="none" stroke="#211915" stroke-linecap="round" stroke-linejoin="round" stroke-miterlimit="10" stroke-width="2" d="m 604.5,322.3 c 0.5,0.2 1,0.7 1.3,1.1"/><path id="path350" fill="none" stroke="#211915" stroke-linecap="round" stroke-linejoin="round" stroke-miterlimit="10" stroke-width="2" d="m 608.4,325.6 c 0.5,0.5 1.1,0.9 1.6,1.3"/><path id="path352" fill="none" stroke="#211915" stroke-linecap="round" stroke-linejoin="round" stroke-miterlimit="10" stroke-width="2" d="m 604.8,325.4 c 0.5,0.1 0.9,0.4 1.3,0.7"/><path id="path354" fill="none" stroke="#211915" stroke-linecap="round" stroke-linejoin="round" stroke-miterlimit="10" stroke-width="2" d="m 618.7,360.8 c 0.5,0.2 1,0.3 1.5,0.5"/><line id="line356" x1="623" x2="625" y1="362" y2="362" fill="none" stroke="#211915" stroke-linecap="round" stroke-linejoin="round" stroke-miterlimit="10" stroke-width="2"/><path id="path358" fill="none" stroke="#211915" stroke-linecap="round" stroke-linejoin="round" stroke-miterlimit="10" stroke-width="2" d="m 630.1,345.9 c 1.2,0.7 2.3,2.1 3,3"/><path id="path360" fill="none" stroke="#211915" stroke-linecap="round" stroke-linejoin="round" stroke-miterlimit="10" stroke-width="2" d="m 228.5,349.8 c 0.7,-0.8 1.8,-1.6 3,-2"/><line id="line362" x1="238" x2="240" y1="365" y2="365" fill="none" stroke="#211915" stroke-linecap="round" stroke-linejoin="round" stroke-miterlimit="10" stroke-width="2"/><path id="path364" fill="none" stroke="#211915" stroke-linecap="round" stroke-linejoin="round" stroke-miterlimit="10" stroke-width="2" d="m 241.9,365.2 c -0.4,-0.4 0.3,-0.5 1,-0.5"/><line id="line366" x1="239" x2="241" y1="362" y2="362" fill="none" stroke="#211915" stroke-linecap="round" stroke-linejoin="round" stroke-miterlimit="10" stroke-width="2"/><path id="path368" fill="none" stroke="#211915" stroke-linecap="round" stroke-linejoin="round" stroke-miterlimit="10" stroke-width="2" d="m 322.4,460.5 c 2.9,6.9 11.8,11.9 19,13"/><path id="path370" fill="none" stroke="#211915" stroke-linecap="round" stroke-linejoin="round" stroke-miterlimit="10" stroke-width="2" d="m 330.4,460.5 c 0.5,0.7 1.2,1 2,1"/><line id="line372" x1="338" x2="341" y1="465" y2="465" fill="none" stroke="#211915" stroke-linecap="round" stroke-linejoin="round" stroke-miterlimit="10" stroke-width="2"/><path id="path374" fill="none" stroke="#211915" stroke-linecap="round" stroke-linejoin="round" stroke-miterlimit="10" stroke-width="2" d="m 415.4,480.5 c 8.2,0 21.6,-2.4 28,1"/><path id="path376" fill="none" stroke="#211915" stroke-linecap="round" stroke-linejoin="round" stroke-miterlimit="10" stroke-width="2" d="m 514.4,473.5 c 4.8,0.7 8.8,-2.2 13,-4"/><path id="path378" fill="none" stroke="#211915" stroke-linecap="round" stroke-linejoin="round" stroke-miterlimit="10" stroke-width="2" d="m 535.4,465.5 c 1.3,-0.8 2.6,-1.4 4,-2"/><path id="path380" fill="none" stroke="#211915" stroke-linecap="round" stroke-linejoin="round" stroke-miterlimit="10" stroke-width="2" d="m 526.4,461.5 c 1.9,-0.1 3.3,-0.4 5,-1"/><circle id="circle382" cx="435.4" cy="332" r="3.2" fill="none" stroke="#211915" stroke-linecap="round" stroke-linejoin="round" stroke-miterlimit="10"/><path id="path384" fill="none" stroke="#211915" stroke-linecap="round" stroke-linejoin="round" stroke-miterlimit="10" d="m 435.4,320.2 c 0,0 3.2,4.8 3.2,11.4"/><path id="path386" fill="none" stroke="#211915" stroke-linecap="round" stroke-linejoin="round" stroke-miterlimit="10" d="m 435.4,320.2 c 0,0 -3.2,4.9 -3.2,11.5"/><path id="path388" fill="none" stroke="#211915" stroke-linecap="round" stroke-linejoin="round" stroke-miterlimit="10" d="m 436.6,318.5 c 0.2,0.4 0.7,1.8 1.1,2.8 0.4,1.1 0.9,2.2 1.3,3.3 1,2.8 2.2,6.2 1.4,9.2 -0.5,1.9 -2.1,2.7 -3.9,2.9 -2.1,0.3 -5.2,0.2 -6.4,-1.8 -0.9,-1.5 -0.8,-3.5 -0.5,-5.2 0.3,-1.7 0.8,-3.4 1.4,-5.1 0.4,-1.1 0.9,-2.2 1.3,-3.3 0.5,-1.1 1,-2.2 1.5,-3.3"/><path id="path390" fill="none" stroke="#211915" stroke-linecap="round" stroke-linejoin="round" stroke-miterlimit="10" d="m 433.2,312.6 c 0,0 -4.1,4 -1.2,9.7"/><path id="path392" fill="none" stroke="#211915" stroke-linecap="round" stroke-linejoin="round" stroke-miterlimit="10" d="m 437,312.6 c 0,0 4,4.1 1.1,9.7"/><path id="path394" fill="none" stroke="#211915" stroke-linecap="round" stroke-linejoin="round" stroke-miterlimit="10" d="m 433.9,312.9 c 0,0 -1.7,3.9 1.6,7.3"/><path id="path396" fill="none" stroke="#211915" stroke-linecap="round" stroke-linejoin="round" stroke-miterlimit="10" d="m 437,312.9 c 0,0 1.7,3.9 -1.6,7.3"/><line id="line398" x1="431.2" x2="430.9" y1="336" y2="439.5" fill="none" stroke="#211915" stroke-linecap="round" stroke-linejoin="round" stroke-miterlimit="10"/><line id="line400" x1="439.2" x2="439.4" y1="335.7" y2="439.5" fill="none" stroke="#211915" stroke-linecap="round" stroke-linejoin="round" stroke-miterlimit="10"/><path id="path402" fill="none" stroke="#211915" stroke-linecap="round" stroke-linejoin="round" stroke-miterlimit="10" stroke-width="2" d="m 479,329.6 c 7.3,-11.8 17.8,-9.6 29.8,-12.2 1.1,-12.7 13.7,-21.7 25.4,-16.4 2.1,-8.8 10.1,-13.9 18.3,-10.3"/><path id="path404" fill="none" stroke="#211915" stroke-linecap="round" stroke-linejoin="round" stroke-miterlimit="10" stroke-width="2" d="m 273.5,283.1 c 6.6,-1.4 18.7,-5.7 25.6,-3 8.5,3.4 7.8,11.6 15,15.1 4.5,2.3 13.1,-2 19.8,2.5 7.2,4.8 11.4,10.9 11.9,19.6 13.4,0.2 34.9,-0.2 37.2,16.7"/><path id="path406" fill="none" stroke="#211915" stroke-linecap="round" stroke-linejoin="round" stroke-miterlimit="10" stroke-width="2" d="m 285.5,325.1 c 7.6,8.7 22.4,21.2 36,11.9 6.4,6.5 14.9,10.2 24,10.6"/><path id="path408" fill="none" stroke="#211915" stroke-linecap="round" stroke-linejoin="round" stroke-miterlimit="10" stroke-width="2" d="m 398.4,349.5 c 0.3,8.1 -2,12.8 5.8,16.5 -3.8,10.5 3.8,15.5 14.2,15.5"/><path id="path410" fill="none" stroke="#211915" stroke-linecap="round" stroke-linejoin="round" stroke-miterlimit="10" stroke-width="2" d="m 476.4,345.5 c 2,11.4 -4.8,19.2 -16.3,20.1 10.5,3.5 9.7,16.9 -2.9,22.4 5.8,8.1 1.6,10.7 -2.8,17.5"/><path id="path412" fill="none" stroke="#211915" stroke-linecap="round" stroke-linejoin="round" stroke-miterlimit="10" stroke-width="2" d="m 245,272.6 c -3.3,-5.5 -2.3,-12.2 4.2,-15.3 -2.7,-6.3 -1,-10.2 3.3,-14.7"/><path id="path414" fill="none" stroke="#211915" stroke-linecap="round" stroke-linejoin="round" stroke-miterlimit="10" stroke-width="2" d="m 542.4,331.5 c 11.1,1.5 30.3,-8.1 30,-24"/><circle id="ellipse526" cx="-144.955" cy="383.425" r="14.3" stroke-width="1" transform="rotate(-82.646154)"/><circle id="ellipse528" cx="-126.583" cy="518.291" r="14.3" stroke-width="1" transform="rotate(-82.646154)"/><path id="path530" d="m 438.1,241.2 c -5.7,0.6 -12.5,-0.3 -15.2,-1.8 -1.6,-0.9 -3.2,-2 -4.1,-3.5 -2.6,-4.1 3,-6.4 6.5,-7.4 3.2,-0.9 6.4,-1.1 9.7,-0.8 2.7,0.2 5.3,0.7 7.7,1.8 2.4,1.1 3.6,1.6 4.3,3.9 1.5,5 -3.2,7.2 -8.9,7.8 z"/><circle id="ellipse532" cx="-126.569" cy="518.274" r="49.001" fill="none" stroke="#000" stroke-linecap="round" stroke-linejoin="round" stroke-miterlimit="10" stroke-width="3.624" transform="rotate(-82.646154)"/><circle id="ellipse534" cx="-144.955" cy="386.374" r="49.001" fill="none" stroke="#000" stroke-linecap="round" stroke-linejoin="round" stroke-miterlimit="10" stroke-width="3.624" transform="rotate(-82.646154)"/><circle id="ellipse536" cx="-144.955" cy="383.425" r="14.3" stroke-width="1" transform="rotate(-82.646154)"/><circle id="ellipse538" cx="-126.583" cy="518.291" r="14.3" stroke-width="1" transform="rotate(-82.646154)"/><circle id="ellipse540" cx="-41.788" cy="323.794" r="7.1" stroke-width="1" transform="rotate(-82.651837)"/><circle id="ellipse542" cx="-39.844" cy="338.693" r="24.301" fill="none" stroke="#211915" stroke-linecap="round" stroke-linejoin="round" stroke-miterlimit="10" stroke-width="4" transform="rotate(-82.646154)"/><path id="path544" fill="none" stroke="#000" stroke-linecap="round" stroke-linejoin="round" stroke-miterlimit="10" stroke-width="3.624" d="m 405.8,240 c 4.4,-2.8 10.1,-6 15.5,-5.8 5.1,0.1 10.2,1.1 15.3,1.6 4.8,0.5 9.3,0.3 14,1.9 4.7,1.6 9.2,4.4 12.5,8.2 3.8,4.3 2.1,11.3 -3,14.7 -9.6,6.3 -18.6,-4.7 -28.5,-4.1 -9.5,0.5 -17.6,9.9 -27.2,2.6 -6.4,-4.8 -4.4,-15.4 1.4,-19.1 z"/><path id="path546" fill="none" stroke="#000" stroke-linecap="round" stroke-linejoin="round" stroke-miterlimit="10" stroke-width="3.624" d="m 431.8,258 c -0.3,3.9 -0.5,9.8 0,11.9 1,3.6 5.5,3.8 10.6,3.4 6.1,-0.5 5,-4.5 5,-5.7 0,-0.8 -0.4,-4.6 -0.3,-5.5"/><path id="path548" fill="none" stroke="#000" stroke-linecap="round" stroke-linejoin="round" stroke-miterlimit="10" stroke-width="3.624" d="m 412.4,262.5 c -0.3,3.9 -0.3,5.8 0.2,7.9 1,3.6 5.5,3.8 10.6,3.4 6.1,-0.5 7.7,-1.3 7.7,-2.8 0,-1 0.5,-12.1 0.6,-13"/><path id="path550" fill="none" stroke="#000" stroke-linecap="round" stroke-linejoin="round" stroke-miterlimit="10" stroke-width="3.624" d="m 438.1,241.2 c -5.7,0.6 -12.5,-0.3 -15.2,-1.8 -1.6,-0.9 -3.2,-2 -4.1,-3.5 -2.6,-4.1 3,-6.4 6.5,-7.4 3.2,-0.9 6.4,-1.1 9.7,-0.8 2.7,0.2 5.3,0.7 7.7,1.8 2.4,1.1 3.6,1.6 4.3,3.9 1.5,5 -3.2,7.2 -8.9,7.8 z"/><path id="path552" fill="none" stroke="#211915" stroke-linecap="round" stroke-linejoin="round" stroke-miterlimit="10" stroke-width="4" d="m 261,210.5 c -3.1,-12.4 -4.1,-25.4 -2.9,-37.2 C 260.7,149 271,126.4 280,104 291.1,76.2 305.4,46 332.2,30.2"/><path id="path554" fill="none" stroke="#211915" stroke-linecap="round" stroke-linejoin="round" stroke-miterlimit="10" stroke-width="4" d="m 330.9,22 c -10.2,2.1 -22.6,3.5 -32,-2.4 -6.5,-4.1 -11.5,-18.1 -20.6,-15.8 -7.2,1.8 -7.7,14 -7.4,19.5 0.6,10.5 3.9,20.8 9,30 2.6,4.7 8.9,16.6 14.2,18.3"/><path id="path556" fill="none" stroke="#211915" stroke-linecap="round" stroke-linejoin="round" stroke-miterlimit="10" stroke-width="4" d="m 286,346.9 c -2.6,33.1 6.4,70.2 20.1,100.1 6,13.2 15.1,24.5 28.5,30.6 21.6,9.8 46.8,10.5 70.1,11.8 9.1,0.5 21,1.2 29.2,1.4"/><path id="path558" fill="none" stroke="#211915" stroke-linecap="round" stroke-linejoin="round" stroke-miterlimit="10" stroke-width="4" d="m 259.4,318.3 c -6.9,4.3 -17,12.7 -21.8,17.4 -2.6,2.6 -11.7,10.6 -13,14.2 -2.5,6.8 7.5,2.4 8.8,8.5 1.5,6.9 -5.1,11 5.3,10.7 5.8,-0.2 11.4,-2.1 16.7,-4.1 8.7,-3.2 20.5,-5.3 30.2,-10.6"/><path id="path560" fill="none" stroke="#211915" stroke-linecap="round" stroke-linejoin="round" stroke-miterlimit="10" stroke-width="4" d="m 317.5,464.9 c -8.3,6.8 -16.6,13.6 -20.8,23.6 -5,11.8 -0.9,27.8 13.1,28.6 9.8,0.5 27,-6.3 35.6,-10.5 8.8,-4.3 23.5,-13.1 31.8,-18.9"/><path id="path562" fill="none" stroke="#211915" stroke-linecap="round" stroke-linejoin="round" stroke-miterlimit="10" stroke-width="4" d="m 283.3,59 c -6.4,0 -28.9,8 -30.7,14.9 -3.2,12.2 24.7,15.7 32.6,17.2"/><path id="path564" fill="none" stroke="#211915" stroke-linecap="round" stroke-linejoin="round" stroke-miterlimit="10" stroke-width="3" d="m 234.4,338.8 c 6.3,2.1 10.2,8.2 12.3,12.6 2.2,4.7 3,10.8 0.9,16.2"/><path id="path566" fill="none" stroke="#211915" stroke-linecap="round" stroke-linejoin="round" stroke-miterlimit="10" stroke-width="3" d="m 628.8,338.8 c -6.3,2.1 -10.2,8.2 -12.3,12.6 -2.2,4.7 -3,10.8 -0.9,16.2"/><circle id="ellipse568" cx="531.411" cy="152.043" r="7.1" stroke-width="1" transform="rotate(-7.3481634)"/><circle id="ellipse570" cx="518.522" cy="150.41" r="24.301" fill="none" stroke="#211915" stroke-linecap="round" stroke-linejoin="round" stroke-miterlimit="10" stroke-width="4" transform="rotate(-7.3538458)"/><path id="path572" fill="none" stroke="#211915" stroke-linecap="round" stroke-linejoin="round" stroke-miterlimit="10" stroke-width="4" d="m 476.3,112.8 c 77.4,-0.2 109,83 89.2,149.3"/><path id="path574" fill="none" stroke="#211915" stroke-linecap="round" stroke-linejoin="round" stroke-miterlimit="10" stroke-width="4" d="m 388.3,113.8 c -77.4,-0.2 -109,83 -89.2,149.3"/><path id="path576" fill="none" stroke="#211915" stroke-linecap="round" stroke-linejoin="round" stroke-miterlimit="10" stroke-width="4" d="m 432.7,88.4 c 9.9,-0.2 20.7,-0.6 29.5,3.5 10.5,4.9 17.9,23.8 13,34.9 -4.8,11 -16.3,17 -27.5,19.7 -18.9,4.5 -49.7,0.8 -58.7,-19.7 -4.9,-11.1 2.5,-30 13,-34.9 9.1,-4.2 20.6,-3.8 30.7,-3.5"/><path id="path578" fill="none" stroke="#211915" stroke-linecap="round" stroke-linejoin="round" stroke-miterlimit="10" stroke-width="4" d="m 532.2,30.2 c 24.2,14.3 33.4,34.7 45.8,58 20.4,38.4 34.4,73.7 24.8,118.8"/><path id="path580" fill="none" stroke="#211915" stroke-linecap="round" stroke-linejoin="round" stroke-miterlimit="10" stroke-width="4" d="m 533.5,22.1 c 10.2,2.1 22.6,3.5 32,-2.3 6.5,-4.1 11.6,-18.1 20.6,-15.8 7.2,1.8 7.7,14 7.3,19.6 -0.6,10.5 -4,20.7 -9,30 -2.6,4.7 -9.7,17.1 -15,18.7"/><path id="path582" fill="none" stroke="#211915" stroke-linecap="round" stroke-linejoin="round" stroke-miterlimit="10" stroke-width="4" d="m 578.3,346.9 c 2.6,33.1 -6.4,70.2 -20.1,100.1 -6,13.2 -15.1,24.5 -28.5,30.6 -21.6,9.8 -46.8,10.5 -70.1,11.8 -9.1,0.5 -17.4,1.2 -25.7,1.4"/><path id="path584" fill="none" stroke="#211915" stroke-linecap="round" stroke-linejoin="round" stroke-miterlimit="10" stroke-width="4" d="m 604.9,318.3 c 6.9,4.3 17,12.7 21.8,17.4 2.6,2.6 11.7,10.6 13,14.2 2.5,6.8 -7.5,2.4 -8.8,8.5 -1.5,6.9 5.1,11 -5.3,10.7 -5.8,-0.2 -11.4,-2.1 -16.7,-4.1 -8.7,-3.2 -20.5,-5.3 -30.2,-10.6"/><path id="path586" fill="none" stroke="#211915" stroke-linecap="round" stroke-linejoin="round" stroke-miterlimit="10" stroke-width="4" d="m 546.8,464.9 c 8.3,6.8 16.6,13.6 20.8,23.6 5,11.8 0.9,27.8 -13.1,28.6 -9.8,0.5 -27,-6.3 -35.6,-10.5 -8.8,-4.3 -23.5,-13.1 -31.8,-18.9"/><path id="path588" fill="none" stroke="#211915" stroke-linecap="round" stroke-linejoin="round" stroke-miterlimit="10" stroke-width="4" d="m 581,59.2 c 6.4,0 28.9,8.1 30.6,15 3.2,12.2 -24.5,14.1 -32.4,15.6"/><path id="path590" fill="none" stroke="#211915" stroke-linecap="round" stroke-linejoin="round" stroke-miterlimit="10" stroke-width="5" d="m 294.8,262.1 c 27.8,-1.2 51.6,19.5 64.3,42 l -7,-10.7 c 14.2,-2.2 32.2,4.7 41.5,16 10.4,-3 16.9,0.6 20.6,5.3 10.2,-6.8 25.1,-3.8 35,0 3.6,-5 10.5,-8.4 21.4,-5.3 9.3,-11.4 27.3,-18.2 41.5,-16 l -7,10.7 c 12.7,-22.6 36.5,-43.3 64.3,-42 18.5,-14.8 29.8,-30.7 33,-54.6 l -0.5,3 c 31.9,-6.5 36.9,118.6 -6.8,107.6 l 3.5,0.6 c -1.8,22.1 -31.5,38.1 -51.5,37.4 l 3.2,0.1 c -5.7,28.7 -35.4,46.9 -59.5,42.9 0,0.6 -3.7,8.1 -13,7.7 -7.4,-0.3 -3.8,-6.7 -7.3,-10.7 -0.2,2.7 -3.1,10.9 -6.7,11.8 -3.7,0.9 -3.9,1.4 -12.4,-0.9 -0.7,11.1 -7.6,27.4 -16.7,34.5 -8.2,-5.6 -18,-24.8 -20.4,-34.8 -4.6,3.2 -7.8,3.6 -12.1,0.1 -2.4,-1.9 -8.3,-8.2 -8.5,-10.8 -3.5,4 0,10.4 -7.3,10.7 -4.5,0.2 -9.9,-5.7 -10,-10 -26.2,-1.2 -56.8,-11.9 -62.6,-40.6 L 317,356 c -20,0.7 -49.7,-15.3 -51.5,-37.4 L 269,318 c -43.7,11 -40,-114.1 -8.1,-107.6 2.3,9.1 5.7,17.9 10.3,25.5 6.1,10.2 14.4,18.8 23.6,26.2 z"/><path id="path594" fill="none" stroke="#211915" stroke-linecap="round" stroke-linejoin="round" stroke-miterlimit="10" stroke-width="5" d="m 508.6,55.4 c 0,1.2 -0.3,2.8 -0.5,4.2 -0.4,2.9 -1.4,5.7 -2.2,8.5 5.9,-6.6 12.4,-10.7 16.5,-19.3 4.6,-9.6 11.1,-15.9 11.1,-26.7 -0.9,-11.9 -7,-31.3 -22.1,-31.3 -4.4,-9.4 -17,-17.2 -24.2,-15.5 -0.9,-15.8 -22.3,-25.7 -38.8,-21.3 h -0.1 c -8.3,-6.8 -20.1,-8.6 -31.2,0 -16.7,-4.5 -38.2,5.6 -38.6,21.7 -6.9,-2.6 -20.9,5.2 -25.5,15 -15.1,0 -21.2,19.4 -22.1,31.3 0,10.8 6.5,17.1 11.1,26.7 4.1,8.7 10.6,12.8 16.5,19.3 -0.8,-2.7 -1.8,-5.6 -2.2,-8.5 -0.2,-1.4 -0.5,-3 -0.5,-4.2 v 0.1 c 3.2,6.8 3.4,12.8 9.5,17.8 5.4,4.5 12,6.4 17.9,8.8 -1.2,-2 -2.4,-10 0,-13.3 1.4,7 20.1,16.5 27.3,15.3 -1.2,0 -1.3,-8.5 -1.3,-11.3 6.4,0 16.9,6.7 23.1,10.2 6.2,-3.5 16.6,-10.3 23.1,-10.2 0,2.8 -0.1,11.4 -1.3,11.3 7.3,1.1 25.9,-8.3 27.3,-15.3 2.4,3.3 1.2,11.3 0,13.3 5.8,-2.4 12.4,-4.4 17.9,-8.8 5.9,-4.9 6,-10.9 9.3,-17.8"/><path id="path596" fill="none" stroke="#211915" stroke-linecap="round" stroke-linejoin="round" stroke-miterlimit="10" stroke-width="2.085" d="m 467.6,115 c -6.7,0.9 -6.8,7.5 -6.3,12.9"/><path id="path598" fill="none" stroke="#211915" stroke-linecap="round" stroke-linejoin="round" stroke-miterlimit="10" stroke-width="2.085" d="m 399.2,115 c 6.7,0.9 6.8,7.5 6.3,12.9"/><path id="path600" fill="none" stroke="#211915" stroke-linecap="round" stroke-linejoin="round" stroke-miterlimit="10" stroke-width="4" d="m 572.4,77.7 c 0,0 24.9,-1.8 28.9,2.2"/><path id="path602" fill="none" stroke="#211915" stroke-linecap="round" stroke-linejoin="round" stroke-miterlimit="10" stroke-width="4" d="m 261.4,77.7 c 0,0 24.9,-1.8 28.9,2.2"/><path id="path604" fill="none" stroke="#211915" stroke-linecap="round" stroke-linejoin="round" stroke-miterlimit="10" stroke-width="4" d="m 524.6,509.2 c 10.4,-10.9 26.9,-24.7 41.5,-22.8"/><path id="path606" fill="none" stroke="#211915" stroke-linecap="round" stroke-linejoin="round" stroke-miterlimit="10" stroke-width="4" d="M 339.1,509.2 C 328.7,498.3 312.2,484.5 297.6,486.4"/><path id="path610" fill="none" stroke="#000" stroke-linecap="round" stroke-linejoin="round" stroke-miterlimit="10" stroke-width="3.624" d="M 431.5,268.1"/><path id="path612" fill="none" stroke="#000" stroke-linecap="round" stroke-linejoin="round" stroke-miterlimit="10" stroke-width="3.624" d="M 425.1,274.6"/></g></svg>